<?xml version="1.0" standalone="no"?>
<!DOCTYPE svg PUBLIC "-//W3C//DTD SVG 20010904//EN"
 "http://www.w3.org/TR/2001/REC-SVG-20010904/DTD/svg10.dtd">
<svg version="1.0" xmlns="http://www.w3.org/2000/svg"
 width="180.000000pt" height="180.000000pt" viewBox="0 0 180.000000 180.000000"
 preserveAspectRatio="xMidYMid meet">
<metadata>
Created by potrace 1.14, written by Peter Selinger 2001-2017
</metadata>
<g transform="translate(0.000000,180.000000) scale(0.100000,-0.100000)"
fill="#000000" stroke="none">
<path d="M727 1794 c-2 -2 -21 -6 -44 -8 -22 -3 -51 -10 -64 -15 -13 -5 -27
-9 -31 -10 -84 -17 -225 -99 -317 -186 -120 -114 -189 -231 -232 -395 -25 -94
-27 -119 -24 -235 3 -114 5 -142 19 -190 2 -5 6 -23 11 -40 18 -71 97 -224
140 -271 5 -7 39 -45 75 -85 103 -115 133 -144 200 -193 95 -70 229 -127 330
-141 25 -4 61 -9 80 -13 104 -21 301 11 426 68 117 53 253 161 326 260 199
268 216 655 41 944 -81 133 -247 306 -368 383 -54 34 -172 90 -210 98 -98 22
-148 29 -242 30 -62 1 -114 0 -116 -1z m340 -473 c47 -14 82 -35 40 -25 -43
10 -99 8 -130 -5 -16 -6 -30 -11 -32 -11 -9 0 -110 -105 -107 -112 1 -4 -3 -8
-9 -8 -7 0 -9 -16 -7 -45 3 -24 1 -42 -4 -39 -4 3 -8 0 -8 -7 0 -7 -3 -10 -6
-6 -14 13 -66 -27 -163 -124 -110 -110 -131 -144 -132 -225 -2 -56 23 -112 65
-146 12 -10 16 -18 10 -18 -26 0 -86 95 -99 156 -16 71 -21 191 -11 239 22
105 56 173 124 246 61 66 167 125 242 135 25 4 46 7 48 9 7 6 144 -5 179 -14z
m176 -93 c29 -30 66 -118 74 -177 7 -45 6 -169 0 -196 -3 -11 -8 -33 -13 -50
-38 -155 -198 -298 -361 -324 -57 -9 -147 -7 -203 3 -46 9 -52 17 -9 13 57 -5
113 20 175 81 53 50 59 60 60 100 2 42 4 46 45 66 41 20 252 220 242 230 -3 2
3 16 12 30 10 14 14 26 11 26 -4 0 -2 8 3 18 7 13 6 23 -1 30 -8 8 -8 12 -2
12 8 0 7 14 0 43 -11 43 -65 117 -86 117 -5 0 -10 4 -10 10 0 15 33 -1 63 -32z
m-148 -151 c-9 -47 -80 -108 -80 -67 0 4 -11 17 -25 28 l-24 20 29 30 c37 36
53 42 82 29 18 -8 22 -16 18 -40z m-310 -304 c7 -7 15 -9 19 -6 3 4 6 -5 6
-19 0 -22 -40 -74 -40 -52 0 5 -5 1 -11 -8 -14 -25 -36 -22 -54 6 -20 31 -17
43 24 85 25 26 36 31 39 21 3 -8 11 -20 17 -27z"/>
</g>
</svg>
